<svg xmlns="http://www.w3.org/2000/svg" viewBox="0 0 64 64">

<g transform="translate(-10.48,-46.30) scale(0.15677)">
<path d="M0 0 C4.45194052 2.51996633 6.50057807 5.02800102 7.9140625 9.984375 C8.79105296 14.97118348 8.27120608 18.53450586 5.7265625 22.9140625 C-3.57686325 35.81549822 -18.74925455 45.01398377 -31.45556641 54.25146484 C-33.33246191 55.61674105 -35.2041839 56.9886426 -37.07421875 58.36328125 C-44.33463125 63.63778418 -51.78155408 68.60822713 -59.26489258 73.55966187 C-85.59237422 90.99317099 -106.9454089 108.96856578 -122.6875 136.875 C-123.04263672 137.5030957 -123.39777344 138.13119141 -123.76367188 138.77832031 C-131.36018173 152.33223175 -137.30373517 166.43637616 -142.73583984 180.97631836 C-149.35042766 198.659274 -156.39043274 215.96698461 -174.10546875 225.125 C-182.68632904 228.7753512 -192.13134103 229.69279536 -201.06640625 226.76953125 C-212.33194807 221.51039846 -218.04417674 214.31191032 -222.6875 202.875 C-224.03140169 197.95931405 -223.84260211 192.99424299 -223.84863281 187.93847656 C-223.85359772 186.9409285 -223.85856262 185.94338043 -223.86367798 184.91560364 C-223.87827772 181.61560369 -223.88510116 178.31565195 -223.890625 175.015625 C-223.89638216 172.70937093 -223.90213982 170.40311686 -223.90789795 168.09686279 C-223.91840444 163.25483986 -223.92424812 158.4128335 -223.92773438 153.57080078 C-223.9331912 147.40812678 -223.95716026 141.24567685 -223.98570633 135.08307266 C-224.00447 130.31281937 -224.00954576 125.5426183 -224.01107025 120.77233124 C-224.01407096 118.50326067 -224.02201055 116.23419045 -224.03525543 113.96515656 C-224.16859389 89.34707849 -222.02192334 67.16390924 -204.625 48.25 C-190.19738502 34.41026746 -170.49072123 30.14821975 -151.13671875 28.98046875 C-148.90196466 28.8315308 -146.66726592 28.68176046 -144.43261719 28.53125 C-143.27870483 28.45519531 -142.12479248 28.37914062 -140.93591309 28.30078125 C-120.60002766 26.93998977 -100.61817423 25.30978808 -80.6875 20.875 C-79.40037109 20.59769043 -78.11324219 20.32038086 -76.78710938 20.03466797 C-66.17596094 17.69042374 -55.96376172 14.51160858 -45.6875 11 C-44.17470815 10.49020541 -42.66168728 9.98108994 -41.1484375 9.47265625 C-35.08382746 7.42722215 -29.02426232 5.38236751 -23.0234375 3.15527344 C-22.26426025 2.8767453 -21.50508301 2.59821716 -20.72290039 2.31124878 C-19.28877889 1.78282502 -17.85795518 1.24532078 -16.43139648 0.69680786 C-10.59221547 -1.44631309 -5.9526506 -1.81606289 0 0 Z " fill="#7BADC5" transform="translate(378.6875,437.125)"/>
<path d="M0 0 C11.59023523 7.93642207 19.01558219 20.08029528 22.125 33.75 C23.74584764 49.58331392 21.0845832 64.57166358 11.12109375 77.3125 C2.64335426 87.22039728 -9.55074727 95.79533916 -22.97460938 96.92700195 C-40.14688418 97.39591416 -54.77615604 94.9755877 -67.875 82.75 C-67.875 82.09 -67.875 81.43 -67.875 80.75 C-68.535 80.75 -69.195 80.75 -69.875 80.75 C-81.69936469 67.28749914 -83.61218836 52.56311095 -83.05859375 35.44042969 C-82.71028313 30.3361969 -81.29067729 26.21031918 -78.875 21.75 C-78.50117188 20.97011719 -78.12734375 20.19023437 -77.7421875 19.38671875 C-71.5049076 7.09803816 -60.90768571 -1.77134091 -47.875 -6.25 C-31.04127019 -11.1926696 -15.04128593 -8.82723894 0 0 Z " fill="#7BACC5" transform="translate(273.875,343.25)"/>
<path d="M0 0 C4.04682102 2.42809261 5.62870237 4.55133579 7 9 C7.20677347 11.75551933 7.31412207 14.41198637 7.32226562 17.16748047 C7.33716034 18.38065948 7.33716034 18.38065948 7.35235596 19.61834717 C7.38148289 22.28466231 7.39518204 24.95073964 7.40625 27.6171875 C7.41776108 29.4765727 7.42927644 31.33595787 7.4407959 33.19534302 C7.46178175 37.0906891 7.4734898 40.98595303 7.48046875 44.88134766 C7.49144164 49.86385043 7.53951498 54.845261 7.59641266 59.82742119 C7.63372425 63.66740054 7.64407955 67.50711804 7.6471405 71.34726334 C7.65317988 73.18365587 7.66919123 75.02004454 7.69551086 76.85625839 C7.72976837 79.42958729 7.72584442 82.00026377 7.71289062 84.57373047 C7.74053497 85.70239029 7.74053497 85.70239029 7.76873779 86.85385132 C7.68592653 92.12651787 6.11503293 94.79804497 2.53157806 98.63070869 C-3.7702001 104.26474737 -13.64239746 103.13593185 -21.5234375 103.09765625 C-22.62475006 103.0962413 -23.72606262 103.09482635 -24.86074829 103.09336853 C-28.36552692 103.08778752 -31.8702408 103.07523846 -35.375 103.0625 C-37.75650949 103.05748255 -40.13801999 103.05292007 -42.51953125 103.04882812 C-48.34637612 103.03782431 -54.17318343 103.02110507 -60 103 C-58.78951974 100.56601445 -57.55535799 98.15080821 -56.29418945 95.7421875 C-51.4996917 86.49737824 -47.58926475 77.13408677 -44.04208374 67.34963989 C-18.03290427 -4.16143945 -18.03290427 -4.16143945 0 0 Z " fill="#E59061" transform="translate(289,562)"/>
</g>
</svg>