<?xml version="1.0" encoding="UTF-8"?>
<svg version="1.1" xmlns="http://www.w3.org/2000/svg" width="1024" height="1024" viewBox="0 0 1024 1024">
<path d="M0 0 C4.45194052 2.51996633 6.50057807 5.02800102 7.9140625 9.984375 C8.79105296 14.97118348 8.27120608 18.53450586 5.7265625 22.9140625 C-3.57686325 35.81549822 -18.74925455 45.01398377 -31.45556641 54.25146484 C-33.33246191 55.61674105 -35.2041839 56.9886426 -37.07421875 58.36328125 C-44.33463125 63.63778418 -51.78155408 68.60822713 -59.26489258 73.55966187 C-85.59237422 90.99317099 -106.9454089 108.96856578 -122.6875 136.875 C-123.04263672 137.5030957 -123.39777344 138.13119141 -123.76367188 138.77832031 C-131.36018173 152.33223175 -137.30373517 166.43637616 -142.73583984 180.97631836 C-149.35042766 198.659274 -156.39043274 215.96698461 -174.10546875 225.125 C-182.68632904 228.7753512 -192.13134103 229.69279536 -201.06640625 226.76953125 C-212.33194807 221.51039846 -218.04417674 214.31191032 -222.6875 202.875 C-224.03140169 197.95931405 -223.84260211 192.99424299 -223.84863281 187.93847656 C-223.85359772 186.9409285 -223.85856262 185.94338043 -223.86367798 184.91560364 C-223.87827772 181.61560369 -223.88510116 178.31565195 -223.890625 175.015625 C-223.89638216 172.70937093 -223.90213982 170.40311686 -223.90789795 168.09686279 C-223.91840444 163.25483986 -223.92424812 158.4128335 -223.92773438 153.57080078 C-223.9331912 147.40812678 -223.95716026 141.24567685 -223.98570633 135.08307266 C-224.00447 130.31281937 -224.00954576 125.5426183 -224.01107025 120.77233124 C-224.01407096 118.50326067 -224.02201055 116.23419045 -224.03525543 113.96515656 C-224.16859389 89.34707849 -222.02192334 67.16390924 -204.625 48.25 C-190.19738502 34.41026746 -170.49072123 30.14821975 -151.13671875 28.98046875 C-148.90196466 28.8315308 -146.66726592 28.68176046 -144.43261719 28.53125 C-143.27870483 28.45519531 -142.12479248 28.37914062 -140.93591309 28.30078125 C-120.60002766 26.93998977 -100.61817423 25.30978808 -80.6875 20.875 C-79.40037109 20.59769043 -78.11324219 20.32038086 -76.78710938 20.03466797 C-66.17596094 17.69042374 -55.96376172 14.51160858 -45.6875 11 C-44.17470815 10.49020541 -42.66168728 9.98108994 -41.1484375 9.47265625 C-35.08382746 7.42722215 -29.02426232 5.38236751 -23.0234375 3.15527344 C-22.26426025 2.8767453 -21.50508301 2.59821716 -20.72290039 2.31124878 C-19.28877889 1.78282502 -17.85795518 1.24532078 -16.43139648 0.69680786 C-10.59221547 -1.44631309 -5.9526506 -1.81606289 0 0 Z " fill="#7BADC5" transform="translate(378.6875,437.125)"/>
<path d="M0 0 C12.94404635 10.92679237 21.06113681 26.84813529 22.58203125 43.6640625 C23.83154433 63.36568731 21.06299922 81.65931902 7.84033203 97.12524414 C-4.88438404 111.29605133 -21.26923337 118.52425062 -40.2109375 119.66796875 C-57.7068651 120.33126791 -72.01209952 116.67971442 -86.25 106.3125 C-87.06984375 105.71824219 -87.8896875 105.12398438 -88.734375 104.51171875 C-98.34463857 96.77379963 -105.05809017 85.13745091 -108.25 73.3125 C-108.42370117 72.67989258 -108.59740234 72.04728516 -108.77636719 71.39550781 C-113.52488405 52.49454853 -110.86472019 32.0966349 -101.15625 15.3125 C-92.07754803 1.02470673 -79.21131576 -8.45937718 -63 -13.5625 C-40.2956538 -18.56464488 -18.55739112 -13.77485359 0 0 Z " fill="#4F5961" transform="translate(825.25,377.6875)"/>
<path d="M0 0 C0.97879623 -0.00622879 1.95759247 -0.01245758 2.96604919 -0.01887512 C4.02018509 -0.00966537 5.07432098 -0.00045563 6.16040039 0.0090332 C7.25590714 0.0085347 8.35141388 0.00803619 9.4801178 0.00752258 C11.80268157 0.0098638 14.12524784 0.01959509 16.44775391 0.03613281 C19.96353512 0.05951831 23.47854659 0.05671931 26.99438477 0.05004883 C62.37414591 0.09166521 62.37414591 0.09166521 75.44555664 11.99731445 C85.70942099 23.11828647 86.81990167 35.74928956 86.25854492 50.09350586 C85.36784739 60.89061076 79.25567388 68.57928541 71.48461914 75.5402832 C68.82116422 77.56157828 66.09635382 78.96405438 63.07055664 80.37231445 C69.74135519 92.47778914 77.10530684 104.13826239 84.47998047 115.82373047 C85.00487061 116.66476318 85.52976074 117.5057959 86.07055664 118.37231445 C86.63734131 119.25008545 87.20412598 120.12785645 87.78808594 121.03222656 C89.07055664 123.37231445 89.07055664 123.37231445 88.88305664 126.05981445 C88.07055664 128.37231445 88.07055664 128.37231445 86.07055664 130.37231445 C83.27369235 130.62603843 80.61852227 130.74261199 77.82055664 130.74731445 C77.0690332 130.77180664 76.31750977 130.79629883 75.54321289 130.8215332 C74.80458008 130.82540039 74.06594727 130.82926758 73.30493164 130.83325195 C72.636875 130.84146973 71.96881836 130.8496875 71.28051758 130.8581543 C66.69639258 129.85037604 63.71972479 127.23739734 60.95581055 123.55419922 C60.32594238 122.48484131 59.69607422 121.4154834 59.04711914 120.3137207 C58.69724945 119.72872299 58.34737976 119.14372528 57.98690796 118.54100037 C56.87717355 116.67941819 55.78601598 114.80773894 54.69555664 112.93481445 C53.97284475 111.71337297 53.24889447 110.49266333 52.52368164 109.27270508 C52.16675232 108.67028488 51.809823 108.06786469 51.44207764 107.44718933 C50.72056187 106.23341755 49.9954999 105.02174676 49.26690674 103.81221008 C47.45543882 100.79022081 45.74330493 97.76328607 44.17114258 94.609375 C40.98836146 88.19704787 40.98836146 88.19704787 35.2878418 84.26269531 C32.13210045 83.86829122 29.24353634 83.87118299 26.07055664 84.05981445 C25.0096582 84.07077148 23.94875977 84.08172852 22.85571289 84.09301758 C20.25359093 84.12818139 17.66817091 84.22242751 15.07055664 84.37231445 C15.09150391 85.62367188 15.11245117 86.8750293 15.1340332 88.16430664 C15.20645058 92.8083959 15.25236282 97.45243528 15.2902832 102.09692383 C15.31039469 104.10677484 15.33768779 106.11656736 15.37231445 108.1262207 C15.42085298 111.01569041 15.44352986 113.90438637 15.46118164 116.79418945 C15.48182678 117.69224304 15.50247192 118.59029663 15.52374268 119.51556396 C15.52597239 125.7190674 15.52597239 125.7190674 13.28051758 128.93994141 C10.00367016 131.06381058 6.84150253 130.91570152 3.07055664 130.80981445 C2.35899414 130.8169043 1.64743164 130.82399414 0.91430664 130.83129883 C-3.37086043 130.77933318 -5.87463509 130.41188661 -8.92944336 127.37231445 C-9.43280792 125.07499695 -9.43280792 125.07499695 -9.43737793 122.32421875 C-9.45429688 120.75950333 -9.45429688 120.75950333 -9.47155762 119.16317749 C-9.46346069 118.01918488 -9.45536377 116.87519226 -9.44702148 115.6965332 C-9.4575354 113.88894028 -9.4575354 113.88894028 -9.46826172 112.04483032 C-9.48286553 108.73877515 -9.4794224 105.43371936 -9.46674538 102.12771988 C-9.45662519 98.66976823 -9.4660083 95.21185956 -9.47229004 91.75390625 C-9.47956936 85.94661787 -9.46997147 80.1395329 -9.45092773 74.33227539 C-9.42915819 67.61620247 -9.43620938 60.90061524 -9.45823336 54.1845541 C-9.47637944 48.42054553 -9.47894964 42.65668327 -9.46847868 36.89265537 C-9.46223929 33.44905701 -9.46142004 30.00568701 -9.47462463 26.56210327 C-9.48831406 22.72390837 -9.46934627 18.88625842 -9.44702148 15.0480957 C-9.45511841 13.90410309 -9.46321533 12.76011047 -9.47155762 11.58145142 C-9.46027832 10.5383078 -9.44899902 9.49516418 -9.43737793 8.42041016 C-9.43586983 7.51265335 -9.43436172 6.60489655 -9.43280792 5.66963196 C-8.92944336 3.37231445 -8.92944336 3.37231445 -7.04330349 1.58019733 C-4.50099776 0.12749593 -2.91736808 -0.00214038 0 0 Z " fill="#4F5860" transform="translate(455.929443359375,534.627685546875)"/>
<path d="M0 0 C11.59023523 7.93642207 19.01558219 20.08029528 22.125 33.75 C23.74584764 49.58331392 21.0845832 64.57166358 11.12109375 77.3125 C2.64335426 87.22039728 -9.55074727 95.79533916 -22.97460938 96.92700195 C-40.14688418 97.39591416 -54.77615604 94.9755877 -67.875 82.75 C-67.875 82.09 -67.875 81.43 -67.875 80.75 C-68.535 80.75 -69.195 80.75 -69.875 80.75 C-81.69936469 67.28749914 -83.61218836 52.56311095 -83.05859375 35.44042969 C-82.71028313 30.3361969 -81.29067729 26.21031918 -78.875 21.75 C-78.50117188 20.97011719 -78.12734375 20.19023437 -77.7421875 19.38671875 C-71.5049076 7.09803816 -60.90768571 -1.77134091 -47.875 -6.25 C-31.04127019 -11.1926696 -15.04128593 -8.82723894 0 0 Z " fill="#7BACC5" transform="translate(273.875,343.25)"/>
<path d="M0 0 C1.1456543 -0.01740234 1.1456543 -0.01740234 2.31445312 -0.03515625 C3.05501953 -0.03128906 3.79558594 -0.02742187 4.55859375 -0.0234375 C5.56684204 -0.01836182 5.56684204 -0.01836182 6.59545898 -0.01318359 C9.27164872 0.51494619 10.57531174 1.51457804 12.5625 3.375 C13.04351807 5.63395691 13.04351807 5.63395691 13.01660156 8.30541992 C13.01611816 9.32019409 13.01563477 10.33496826 13.01513672 11.38049316 C12.99467285 12.44473511 12.97420898 13.50897705 12.953125 14.60546875 C12.94909668 15.58535767 12.94506836 16.56524658 12.94091797 17.5748291 C12.91997909 21.23757636 12.86413358 24.90005685 12.8125 28.5625 C12.73 36.750625 12.6475 44.93875 12.5625 53.375 C32.0325 53.375 51.5025 53.375 71.5625 53.375 C71.44377867 37.05490495 71.44377867 37.05490495 71.29223633 20.73510742 C71.283476 18.69189929 71.27583099 16.64868595 71.26953125 14.60546875 C71.2465094 13.00910583 71.2465094 13.00910583 71.22302246 11.38049316 C71.22247864 9.85833191 71.22247864 9.85833191 71.22192383 8.30541992 C71.21193108 6.98304573 71.21193108 6.98304573 71.20173645 5.63395691 C71.5625 3.375 71.5625 3.375 72.84184265 1.59394836 C75.86035386 -0.54442585 79.43750714 -0.09540296 83 -0.0625 C83.76376953 -0.08248047 84.52753906 -0.10246094 85.31445312 -0.12304688 C86.05501953 -0.12240234 86.79558594 -0.12175781 87.55859375 -0.12109375 C88.23075928 -0.12294678 88.9029248 -0.1247998 89.59545898 -0.12670898 C92.4906674 0.61173625 93.66747749 2.1050116 95.5625 4.375 C96.06586456 6.76133728 96.06586456 6.76133728 96.07043457 9.46069336 C96.08171387 10.48693817 96.09299316 11.51318298 96.10461426 12.57052612 C96.09651733 13.69065094 96.08842041 14.81077576 96.08007812 15.96484375 C96.0870874 17.14893829 96.09409668 18.33303284 96.10131836 19.55300903 C96.11590534 22.79695989 96.11248909 26.04025773 96.09980202 29.28419876 C96.08966883 32.68028375 96.09906857 36.07632539 96.10534668 39.47241211 C96.11262221 45.17537255 96.10303807 50.87812572 96.08398438 56.58105469 C96.06221554 63.17273156 96.069267 69.76391354 96.09129 76.35557842 C96.1094469 82.01686429 96.11200099 87.67800125 96.10153532 93.33930683 C96.09530187 96.71976648 96.09446034 100.09999357 96.10768127 103.48043823 C96.11781665 107.24902007 96.10238592 111.01664579 96.08007812 114.78515625 C96.08817505 115.90528107 96.09627197 117.02540588 96.10461426 118.17947388 C96.08769531 119.71884109 96.08769531 119.71884109 96.07043457 121.28930664 C96.06892647 122.18009415 96.06741837 123.07088165 96.06586456 123.98866272 C95.39989016 127.14589637 94.02289057 128.35898363 91.5625 130.375 C89.59545898 130.87670898 89.59545898 130.87670898 87.55859375 130.87109375 C86.44774414 130.87206055 86.44774414 130.87206055 85.31445312 130.87304688 C84.55068359 130.85306641 83.78691406 130.83308594 83 130.8125 C82.23236328 130.81958984 81.46472656 130.82667969 80.67382812 130.83398438 C75.12696874 130.77111674 75.12696874 130.77111674 72.84184265 129.16752625 C71.12164932 126.75731058 71.20050925 125.20905944 71.22192383 122.26098633 C71.22228638 121.20560669 71.22264893 120.15022705 71.22302246 119.06286621 C71.23837036 117.95544067 71.25371826 116.84801514 71.26953125 115.70703125 C71.27255249 114.68782593 71.27557373 113.66862061 71.27868652 112.61853027 C71.29439299 108.80808397 71.33627693 104.99778191 71.375 101.1875 C71.436875 92.669375 71.49875 84.15125 71.5625 75.375 C52.0925 75.375 32.6225 75.375 12.5625 75.375 C12.72073012 91.9792647 12.72073012 91.9792647 12.92285156 108.58300781 C12.93453407 110.66470522 12.94472693 112.74641175 12.953125 114.828125 C12.97358887 115.90884277 12.99405273 116.98956055 13.01513672 118.10302734 C13.01562012 119.1379834 13.01610352 120.17293945 13.01660156 121.23925781 C13.02548401 122.13638489 13.03436646 123.03351196 13.04351807 123.95782471 C12.39949316 127.19412954 11.14156332 128.37578529 8.5625 130.375 C5.73617345 130.74889945 3.37226072 130.89139727 0.5625 130.8125 C-0.1490625 130.81958984 -0.860625 130.82667969 -1.59375 130.83398438 C-5.87870511 130.7820213 -8.38309342 130.41488377 -11.4375 127.375 C-11.93807125 125.0776825 -11.93807125 125.0776825 -11.93870544 122.3269043 C-11.94853958 121.28376068 -11.95837372 120.24061707 -11.96850586 119.16586304 C-11.95883789 118.02187042 -11.94916992 116.87787781 -11.93920898 115.69921875 C-11.94461197 114.4941568 -11.95001495 113.28909485 -11.95558167 112.04751587 C-11.9659567 108.74145048 -11.95835454 105.43638344 -11.94187045 102.13040543 C-11.92803019 98.67246329 -11.93447885 95.21455162 -11.93800354 91.7565918 C-11.94070649 85.94929626 -11.92722298 80.14220732 -11.90405273 74.33496094 C-11.87744228 67.61895024 -11.87569547 60.90328499 -11.8874411 54.18723965 C-11.89821676 47.7292431 -11.89203354 41.27137163 -11.87788582 34.81338501 C-11.87212412 32.06382291 -11.8722101 29.31435228 -11.87695122 26.56478882 C-11.88260535 22.7266531 -11.86341196 18.88886369 -11.84155273 15.05078125 C-11.84605438 13.90678864 -11.85055603 12.76279602 -11.85519409 11.58413696 C-11.84528946 10.54099335 -11.83538483 9.49784973 -11.82518005 8.4230957 C-11.82275016 7.5153389 -11.82032026 6.60758209 -11.81781673 5.6723175 C-11.4375 3.375 -11.4375 3.375 -10.15521336 1.58439636 C-7.13822675 -0.5397838 -3.55305031 -0.05369849 0 0 Z " fill="#4E575F" transform="translate(578.4375,534.625)"/>
<path d="M0 0 C1.01642578 -0.01611328 2.03285156 -0.03222656 3.08007812 -0.04882812 C17.87194917 -0.0582557 31.66670879 5.05574704 42.40625 15.38671875 C47.18758556 20.55601355 47.52961022 25.03678104 47.5859375 31.82421875 C47.1875 34.3125 47.1875 34.3125 46.11328125 36.09375 C41.24124417 39.17706758 34.61343596 38.40675877 29.1875 37.3125 C26.45677968 35.03901657 24.81869161 32.76354688 22.8828125 29.796875 C19.38835154 24.67595987 13.97695953 23.00524124 8.1875 21.3125 C-0.41307421 20.37385865 -7.08112431 21.59606651 -14.8125 25.3125 C-15.8025 25.6425 -16.7925 25.9725 -17.8125 26.3125 C-18.97916667 28.22916667 -18.97916667 28.22916667 -19.8125 30.3125 C-20.1425 30.9725 -20.4725 31.6325 -20.8125 32.3125 C-21.2378215 36.47574314 -21.23633415 40.19058608 -19.75 44.125 C-15.08590549 49.39091315 -8.41392602 51.30650265 -1.875 53.25 C-1.04524658 53.50595947 -0.21549316 53.76191895 0.6394043 54.02563477 C4.5806045 55.2389778 8.53122888 56.41546854 12.4921875 57.5625 C27.16868217 61.86499218 40.01985495 66.76781653 48.125 80.625 C51.51553205 89.20105165 51.67555155 99.98962785 49.19921875 108.84765625 C44.25744871 119.63602747 35.19814359 127.17742767 24.1875 131.3125 C9.11500673 136.60824088 -10.04702151 136.5854157 -24.8125 130.3125 C-30.62936538 127.44724242 -35.51512556 124.22378507 -39.8125 119.3125 C-40.67875 118.36375 -41.545 117.415 -42.4375 116.4375 C-46.613316 110.94300526 -48.12803672 106.20268826 -48.30859375 99.42578125 C-47.57379807 96.29566738 -46.40924519 95.19046612 -43.8125 93.3125 C-40.28125 92.74609375 -40.28125 92.74609375 -36.3125 92.75 C-35.0028125 92.72808594 -33.693125 92.70617187 -32.34375 92.68359375 C-28.8125 93.3125 -28.8125 93.3125 -26.421875 95.6953125 C-24.8125 98.3125 -24.8125 98.3125 -23.5625 100.75 C-19.53608762 106.64581812 -12.80432272 110.91413546 -5.8125 112.3125 C3.73853912 113.36334782 11.83444627 112.22606102 20.1875 107.3125 C22.89775131 104.94685109 24.04018343 103.7544497 25.1875 100.3125 C25.55078087 93.54393188 25.55078087 93.54393188 23.1875 87.3125 C13.79383798 81.8365738 2.49683933 79.0468924 -7.9375 76.375 C-19.09424819 73.481551 -32.35277733 69.67018496 -39.54296875 59.98046875 C-40.02378906 59.16191406 -40.50460937 58.34335937 -41 57.5 C-41.48855469 56.68917969 -41.97710937 55.87835938 -42.48046875 55.04296875 C-46.92523818 45.93184315 -47.70399393 34.52939548 -44.75 24.8203125 C-39.4242569 13.4452199 -31.40879082 6.86404415 -19.8125 2.3125 C-13.15492878 0.21726008 -6.95332437 -0.02179726 0 0 Z " fill="#4F5860" transform="translate(540.8125,362.6875)"/>
<path d="M0 0 C1.13459656 -0.00788544 1.13459656 -0.00788544 2.29211426 -0.01593018 C4.79391086 -0.02914054 7.29507186 -0.02038873 9.796875 -0.01025391 C11.53418093 -0.01227435 13.27148604 -0.01518554 15.00878906 -0.01895142 C18.65047274 -0.02337616 22.29193572 -0.01693894 25.93359375 -0.00292969 C30.60460984 0.01416237 35.27510884 0.00432198 39.94610596 -0.01364708 C43.53373113 -0.0244809 47.12123345 -0.02104044 50.7088623 -0.0132637 C52.43127503 -0.01126058 54.15369887 -0.01372491 55.87609863 -0.02070236 C58.28228355 -0.02831036 60.6876278 -0.01672253 63.09375 0 C64.16453796 -0.00910904 64.16453796 -0.00910904 65.25695801 -0.0184021 C68.118249 0.01849058 70.08336776 0.07144342 72.48339844 1.71151733 C74.23803198 4.47785462 74.01980698 7.1012055 74.046875 10.32568359 C74.0778125 11.55158203 74.10875 12.77748047 74.140625 14.04052734 C73.546875 17.38818359 73.546875 17.38818359 71.77856445 19.57299805 C66.75594912 22.3941165 61.9072742 21.87996675 56.24609375 21.77880859 C55.05458206 21.7731488 53.86307037 21.76748901 52.63545227 21.76165771 C48.83468231 21.73929044 45.03485943 21.68909044 41.234375 21.63818359 C38.65561258 21.61811918 36.07683537 21.59986831 33.49804688 21.58349609 C27.18033231 21.54282848 20.86466213 21.46453147 14.546875 21.38818359 C14.546875 32.27818359 14.546875 43.16818359 14.546875 54.38818359 C19.78304687 54.35337891 19.78304687 54.35337891 25.125 54.31787109 C28.50406531 54.30227577 31.88312662 54.29013032 35.26220703 54.27832031 C37.61150913 54.26825976 39.96079869 54.25460987 42.31005859 54.23730469 C45.68590385 54.21305907 49.0615836 54.201701 52.4375 54.19287109 C53.48867004 54.18254852 54.53984009 54.17222595 55.62286377 54.16159058 C56.60357849 54.16143951 57.58429321 54.16128845 58.59472656 54.16113281 C59.45632385 54.15669159 60.31792114 54.15225037 61.20562744 54.14767456 C63.77435902 54.41155231 65.37285651 55.0105836 67.546875 56.38818359 C69.02288721 59.34020802 68.79497852 62.04146312 68.859375 65.32568359 C68.91544922 67.19546875 68.91544922 67.19546875 68.97265625 69.10302734 C68.546875 72.38818359 68.546875 72.38818359 66.83551025 74.07221985 C64.14553958 75.6189512 62.58885259 75.75213797 59.50292969 75.72875977 C58.50219421 75.72853317 57.50145874 75.72830658 56.47039795 75.72807312 C54.86083221 75.70484734 54.86083221 75.70484734 53.21875 75.68115234 C52.11460754 75.6769075 51.01046509 75.67266266 49.87286377 75.66828918 C46.34728584 75.65150027 42.82228009 75.61384668 39.296875 75.57568359 C36.90625826 75.56063708 34.51563255 75.54694862 32.125 75.53466797 C26.26522736 75.50414832 20.40669144 75.44542493 14.546875 75.38818359 C14.546875 86.27818359 14.546875 97.16818359 14.546875 108.38818359 C18.54296875 108.34177734 22.5390625 108.29537109 26.65625 108.24755859 C30.52179697 108.21637357 34.38732999 108.19207962 38.25292969 108.16845703 C40.94191966 108.15058459 43.63053326 108.12273885 46.31933594 108.08642578 C50.18175061 108.03796744 54.04358708 108.01522733 57.90625 107.99755859 C59.1105365 107.97691345 60.314823 107.95626831 61.55560303 107.93499756 C62.67646301 107.93469543 63.797323 107.93439331 64.95214844 107.93408203 C66.43107574 107.92075836 66.43107574 107.92075836 67.93988037 107.90716553 C71.30566061 108.52818756 72.47991961 109.70715179 74.546875 112.38818359 C75.04296875 115.73583984 75.04296875 115.73583984 74.984375 119.45068359 C74.98308594 120.67916016 74.98179687 121.90763672 74.98046875 123.17333984 C74.546875 126.38818359 74.546875 126.38818359 73.48460388 128.06385803 C70.54063718 130.07588892 67.55312747 129.81399925 64.10961914 129.79223633 C63.35482773 129.79909958 62.60003632 129.80596283 61.82237244 129.81303406 C59.32540109 129.83134685 56.8290554 129.82745825 54.33203125 129.82177734 C52.5971201 129.82633717 50.86221077 129.83164214 49.12730408 129.83766174 C45.48982408 129.84660174 41.85256352 129.84415987 38.21508789 129.83422852 C33.55303136 129.82274036 28.89173241 129.84294306 24.22977543 129.87214565 C20.64638962 129.89049046 17.06318591 129.89021861 13.47976494 129.88450813 C11.76095963 129.88435469 10.04214215 129.89041786 8.32338142 129.90279961 C5.91961261 129.91767507 3.51725013 129.90705918 1.11352539 129.88989258 C0.40326202 129.89956055 -0.30700134 129.90922852 -1.03878784 129.91918945 C-4.24556455 129.87122374 -6.07967834 129.68129591 -8.63567543 127.67513466 C-10.79948283 124.9523512 -10.95352432 123.73191264 -10.95433044 120.29576111 C-10.96416458 119.26807114 -10.97399872 118.24038116 -10.98413086 117.18154907 C-10.97446289 116.05985321 -10.96479492 114.93815735 -10.95483398 113.7824707 C-10.96023697 112.59676987 -10.96563995 111.41106903 -10.97120667 110.18943787 C-10.98156926 106.94140798 -10.97399391 103.69403987 -10.95749545 100.44605327 C-10.9436398 97.04684078 -10.95010549 93.64765888 -10.95362854 90.24842834 C-10.95632991 84.54126449 -10.94286036 78.83431105 -10.91967773 73.12719727 C-10.89305552 66.52761154 -10.8913251 59.92837731 -10.9030661 53.32875627 C-10.91384152 46.98021376 -10.90765955 40.63179848 -10.89351082 34.28326607 C-10.88775019 31.58115191 -10.88783422 28.87913084 -10.89257622 26.1770153 C-10.89547645 22.40595956 -10.87903781 18.63548446 -10.85717773 14.86450195 C-10.86167938 13.74078186 -10.86618103 12.61706177 -10.87081909 11.45928955 C-10.86091446 10.4344194 -10.85100983 9.40954926 -10.84080505 8.35362244 C-10.83837516 7.46191314 -10.83594526 6.57020384 -10.83344173 5.65147305 C-9.81913075 -0.38475714 -5.13052469 -0.04364464 0 0 Z " fill="#505961" transform="translate(624.453125,365.61181640625)"/>
<path d="M0 0 C4.04682102 2.42809261 5.62870237 4.55133579 7 9 C7.20677347 11.75551933 7.31412207 14.41198637 7.32226562 17.16748047 C7.33716034 18.38065948 7.33716034 18.38065948 7.35235596 19.61834717 C7.38148289 22.28466231 7.39518204 24.95073964 7.40625 27.6171875 C7.41776108 29.4765727 7.42927644 31.33595787 7.4407959 33.19534302 C7.46178175 37.0906891 7.4734898 40.98595303 7.48046875 44.88134766 C7.49144164 49.86385043 7.53951498 54.845261 7.59641266 59.82742119 C7.63372425 63.66740054 7.64407955 67.50711804 7.6471405 71.34726334 C7.65317988 73.18365587 7.66919123 75.02004454 7.69551086 76.85625839 C7.72976837 79.42958729 7.72584442 82.00026377 7.71289062 84.57373047 C7.74053497 85.70239029 7.74053497 85.70239029 7.76873779 86.85385132 C7.68592653 92.12651787 6.11503293 94.79804497 2.53157806 98.63070869 C-3.7702001 104.26474737 -13.64239746 103.13593185 -21.5234375 103.09765625 C-22.62475006 103.0962413 -23.72606262 103.09482635 -24.86074829 103.09336853 C-28.36552692 103.08778752 -31.8702408 103.07523846 -35.375 103.0625 C-37.75650949 103.05748255 -40.13801999 103.05292007 -42.51953125 103.04882812 C-48.34637612 103.03782431 -54.17318343 103.02110507 -60 103 C-58.78951974 100.56601445 -57.55535799 98.15080821 -56.29418945 95.7421875 C-51.4996917 86.49737824 -47.58926475 77.13408677 -44.04208374 67.34963989 C-18.03290427 -4.16143945 -18.03290427 -4.16143945 0 0 Z " fill="#E59061" transform="translate(289,562)"/>
<path d="M0 0 C8.73223314 7.45318995 15.11302338 17.37079903 17.1875 28.8125 C17.97665541 44.4120836 16.02482092 58.22193042 5.73046875 70.55859375 C-1.0825677 77.97794257 -10.38612441 82.27754765 -20.42578125 83.11328125 C-34.09653783 83.15658882 -43.42435683 80.54391933 -53.625 71.25 C-57.48463116 66.94926814 -60.33613713 63.14941807 -62.5 57.75 C-62.91636719 56.72777344 -63.33273437 55.70554687 -63.76171875 54.65234375 C-67.87890614 43.52522393 -67.06735897 28.79485296 -62.8125 17.8125 C-57.28591824 6.03623232 -48.93959988 -1.51452418 -36.8125 -6.1875 C-23.94669155 -8.97849548 -10.82915543 -7.86577168 0 0 Z " fill="white" transform="translate(805.8125,392.1875)"/>
<path d="M0 0 C0.83853516 0.00064453 1.67707031 0.00128906 2.54101562 0.00195312 C3.8490918 0.02612305 3.8490918 0.02612305 5.18359375 0.05078125 C6.05951172 0.04755859 6.93542969 0.04433594 7.83789062 0.04101562 C14.35400694 0.09619444 14.35400694 0.09619444 16.62109375 2.36328125 C16.87556934 4.53755093 16.87556934 4.53755093 16.88179016 7.29112244 C16.88887497 8.33289139 16.89595978 9.37466034 16.90325928 10.44799805 C16.90078186 11.59558594 16.89830444 12.74317383 16.89575195 13.92553711 C16.90341835 15.732911 16.90341835 15.732911 16.91123962 17.57679749 C16.92278199 20.88677466 16.92520537 24.19650193 16.92267632 27.50648189 C16.92160834 30.26750855 16.92648557 33.02851198 16.93128175 35.78953367 C16.94238623 42.30233366 16.94280915 48.81507598 16.93676758 55.32788086 C16.93072667 62.05123321 16.94303947 68.77437635 16.96433765 75.497693 C16.98193971 81.26589893 16.9879572 87.03403819 16.9846999 92.80227 C16.98288456 96.24921354 16.98554792 99.69600788 16.99941444 103.14292717 C17.01429505 106.98591229 17.00503485 110.82862995 16.9934082 114.67163086 C17.00487381 116.38997635 17.00487381 116.38997635 17.01657104 118.14303589 C17.00955673 119.18762466 17.00254242 120.23221344 16.99531555 121.30845642 C16.99548329 122.21751204 16.99565104 123.12656767 16.99582386 124.06317043 C16.62109375 126.36328125 16.62109375 126.36328125 15.33964825 128.15430546 C12.32165847 130.27741333 8.73698426 129.79198488 5.18359375 129.73828125 C4.41982422 129.74988281 3.65605469 129.76148438 2.86914062 129.7734375 C2.12857422 129.76957031 1.38800781 129.76570312 0.625 129.76171875 C-0.04716553 129.75833496 -0.71933105 129.75495117 -1.41186523 129.75146484 C-4.09060344 129.22283213 -5.39052007 128.22714382 -7.37890625 126.36328125 C-7.8794775 124.08158112 -7.8794775 124.08158112 -7.88011169 121.35314941 C-7.88994583 120.31841995 -7.89977997 119.28369049 -7.90991211 118.21760559 C-7.90024414 117.08296371 -7.89057617 115.94832184 -7.88061523 114.77929688 C-7.88601822 113.58398849 -7.8914212 112.38868011 -7.89698792 111.15715027 C-7.90736229 107.87807339 -7.89976068 104.59964999 -7.8832767 101.32061577 C-7.86943603 97.89070082 -7.87588515 94.46081658 -7.87940979 91.03088379 C-7.88211271 85.27066601 -7.8686295 79.51065651 -7.84545898 73.75048828 C-7.81884854 67.08900831 -7.81710173 60.42787662 -7.82884735 53.76636171 C-7.83962317 47.36069052 -7.83343966 40.95514543 -7.81929207 34.54948425 C-7.8135305 31.8222506 -7.81361624 29.09510917 -7.81835747 26.36787415 C-7.82125778 22.56078876 -7.80481818 18.75427848 -7.78295898 14.94726562 C-7.78746063 13.81262375 -7.79196228 12.67798187 -7.79660034 11.50895691 C-7.78669571 10.47422745 -7.77679108 9.43949799 -7.7665863 8.37341309 C-7.76415641 7.47303062 -7.76172651 6.57264816 -7.75922298 5.64498138 C-6.99247621 1.04490449 -4.33569164 -0.01683852 0 0 Z " fill="#4E575F" transform="translate(453.37890625,365.63671875)"/>
<path d="M0 0 C7.6725 -0.12375 7.6725 -0.12375 15.5 -0.25 C17.09779297 -0.28641602 18.69558594 -0.32283203 20.34179688 -0.36035156 C35.24248609 -0.47670455 35.24248609 -0.47670455 41.50146484 5.4128418 C46.49143283 10.95183044 47.41055614 16.07783367 47.24609375 23.28515625 C46.68770721 29.44513479 43.97663332 33.4608651 39.79296875 37.73828125 C35.0632749 41.06658433 30.02903135 41.24023225 24.4140625 41.1953125 C23.12967285 41.19031738 21.8452832 41.18532227 20.52197266 41.18017578 C18.90597168 41.16196777 17.2899707 41.14375977 15.625 41.125 C10.46875 41.08375 5.3125 41.0425 0 41 C0 27.47 0 13.94 0 0 Z " fill="white" transform="translate(471,556)"/>
<path d="M0 0 C3.71074172 5.56611258 4.27661803 11.10619272 4.25 17.6875 C4.25773438 19.61142578 4.25773438 19.61142578 4.265625 21.57421875 C4.02327292 24.69984783 3.65937418 26.39899683 2 29 C1.93941406 27.82824219 1.87882813 26.65648437 1.81640625 25.44921875 C1.3666765 16.94869299 0.87681245 8.46963514 0 0 Z " fill="#F1F1ED" transform="translate(819,411)"/>
<path d="M0 0 C0.33 0.99 0.66 1.98 1 3 C-4.61 2.67 -10.22 2.34 -16 2 C-16 1.67 -16 1.34 -16 1 C-10.65097076 0.40801257 -5.39115154 -0.14187241 0 0 Z " fill="#575F66" transform="translate(553,363)"/>
<path d="M0 0 C2.97 0 5.94 0 9 0 C6 3 6 3 2.8125 3.1875 C1.4203125 3.0946875 1.4203125 3.0946875 0 3 C0 2.01 0 1.02 0 0 Z " fill="#586067" transform="translate(769,363)"/>
<path d="M0 0 C0.33 0.99 0.66 1.98 1 3 C-0.65 4.32 -2.3 5.64 -4 7 C-4.66 6.67 -5.32 6.34 -6 6 C-4.02 4.02 -2.04 2.04 0 0 Z " fill="#475158" transform="translate(515,588)"/>
</svg>
