<svg xmlns="http://www.w3.org/2000/svg" viewBox="0 0 1600 900" preserveAspectRatio="xMidYMid slice"><g fill="none" stroke="#4a7af5" stroke-width="1"><path d="M-150,120 C400,260 900,-40 1750,180" stroke-opacity="0.075"/><path d="M-150,128 C401,268 901,-32 1750,188" stroke-opacity="0.075"/><path d="M-150,135 C402,276 902,-23 1750,196" stroke-opacity="0.075"/><path d="M-150,143 C404,284 904,-15 1750,204" stroke-opacity="0.075"/><path d="M-150,150 C405,292 905,-6 1750,212" stroke-opacity="0.075"/><path d="M-150,158 C406,300 906,2 1750,220" stroke-opacity="0.075"/><path d="M-150,166 C407,308 907,10 1750,228" stroke-opacity="0.075"/><path d="M-150,173 C408,316 908,19 1750,236" stroke-opacity="0.075"/><path d="M-150,181 C410,324 910,27 1750,244" stroke-opacity="0.075"/><path d="M-150,188 C411,332 911,36 1750,252" stroke-opacity="0.075"/><path d="M-150,196 C412,340 912,44 1750,260" stroke-opacity="0.075"/><path d="M-150,204 C413,348 913,52 1750,268" stroke-opacity="0.075"/><path d="M-150,211 C414,356 914,61 1750,276" stroke-opacity="0.075"/><path d="M-150,219 C416,364 916,69 1750,284" stroke-opacity="0.075"/><path d="M-150,226 C417,372 917,78 1750,292" stroke-opacity="0.075"/><path d="M-150,234 C418,380 918,86 1750,300" stroke-opacity="0.075"/><path d="M-150,242 C419,388 919,94 1750,308" stroke-opacity="0.075"/><path d="M-150,249 C420,396 920,103 1750,316" stroke-opacity="0.075"/><path d="M-150,257 C422,404 922,111 1750,324" stroke-opacity="0.075"/><path d="M-150,264 C423,412 923,120 1750,332" stroke-opacity="0.075"/><path d="M-150,272 C424,420 924,128 1750,340" stroke-opacity="0.075"/><path d="M-150,280 C425,428 925,136 1750,348" stroke-opacity="0.075"/><path d="M-150,287 C426,436 926,145 1750,356" stroke-opacity="0.075"/><path d="M-150,295 C428,444 928,153 1750,364" stroke-opacity="0.075"/><path d="M-150,302 C429,452 929,162 1750,372" stroke-opacity="0.075"/><path d="M-150,310 C430,460 930,170 1750,380" stroke-opacity="0.075"/><path d="M-150,520 C450,380 1000,720 1750,480" stroke-opacity="0.070"/><path d="M-150,527 C451,388 1001,727 1750,487" stroke-opacity="0.070"/><path d="M-150,534 C452,395 1002,734 1750,494" stroke-opacity="0.070"/><path d="M-150,542 C453,403 1003,741 1750,502" stroke-opacity="0.070"/><path d="M-150,549 C453,410 1003,748 1750,509" stroke-opacity="0.070"/><path d="M-150,556 C454,418 1004,754 1750,516" stroke-opacity="0.070"/><path d="M-150,563 C455,426 1005,761 1750,523" stroke-opacity="0.070"/><path d="M-150,571 C456,433 1006,768 1750,531" stroke-opacity="0.070"/><path d="M-150,578 C457,441 1007,775 1750,538" stroke-opacity="0.070"/><path d="M-150,585 C458,448 1008,782 1750,545" stroke-opacity="0.070"/><path d="M-150,592 C459,456 1009,789 1750,552" stroke-opacity="0.070"/><path d="M-150,600 C459,463 1009,796 1750,560" stroke-opacity="0.070"/><path d="M-150,607 C460,471 1010,803 1750,567" stroke-opacity="0.070"/><path d="M-150,614 C461,479 1011,810 1750,574" stroke-opacity="0.070"/><path d="M-150,621 C462,486 1012,817 1750,581" stroke-opacity="0.070"/><path d="M-150,629 C463,494 1013,823 1750,589" stroke-opacity="0.070"/><path d="M-150,636 C464,501 1014,830 1750,596" stroke-opacity="0.070"/><path d="M-150,643 C465,509 1015,837 1750,603" stroke-opacity="0.070"/><path d="M-150,650 C466,517 1016,844 1750,610" stroke-opacity="0.070"/><path d="M-150,658 C466,524 1016,851 1750,618" stroke-opacity="0.070"/><path d="M-150,665 C467,532 1017,858 1750,625" stroke-opacity="0.070"/><path d="M-150,672 C468,539 1018,865 1750,632" stroke-opacity="0.070"/><path d="M-150,679 C469,547 1019,872 1750,639" stroke-opacity="0.070"/><path d="M-150,687 C470,554 1020,879 1750,647" stroke-opacity="0.070"/><path d="M-150,694 C471,562 1021,886 1750,654" stroke-opacity="0.070"/><path d="M-150,701 C472,570 1022,892 1750,661" stroke-opacity="0.070"/><path d="M-150,708 C472,577 1022,899 1750,668" stroke-opacity="0.070"/><path d="M-150,716 C473,585 1023,906 1750,676" stroke-opacity="0.070"/><path d="M-150,723 C474,592 1024,913 1750,683" stroke-opacity="0.070"/><path d="M-150,730 C475,600 1025,920 1750,690" stroke-opacity="0.070"/><path d="M-150,830 C500,700 1100,900 1750,760" stroke-opacity="0.080"/><path d="M-150,838 C501,708 1101,908 1750,768" stroke-opacity="0.080"/><path d="M-150,846 C502,716 1102,915 1750,776" stroke-opacity="0.080"/><path d="M-150,854 C503,724 1103,923 1750,784" stroke-opacity="0.080"/><path d="M-150,862 C504,732 1104,930 1750,792" stroke-opacity="0.080"/><path d="M-150,870 C505,740 1105,938 1750,800" stroke-opacity="0.080"/><path d="M-150,879 C506,749 1106,946 1750,809" stroke-opacity="0.080"/><path d="M-150,887 C507,757 1107,953 1750,817" stroke-opacity="0.080"/><path d="M-150,895 C508,765 1108,961 1750,825" stroke-opacity="0.080"/><path d="M-150,903 C509,773 1109,969 1750,833" stroke-opacity="0.080"/><path d="M-150,911 C510,781 1110,976 1750,841" stroke-opacity="0.080"/><path d="M-150,919 C510,789 1110,984 1750,849" stroke-opacity="0.080"/><path d="M-150,927 C511,797 1111,991 1750,857" stroke-opacity="0.080"/><path d="M-150,935 C512,805 1112,999 1750,865" stroke-opacity="0.080"/><path d="M-150,943 C513,813 1113,1007 1750,873" stroke-opacity="0.080"/><path d="M-150,951 C514,821 1114,1014 1750,881" stroke-opacity="0.080"/><path d="M-150,960 C515,830 1115,1022 1750,890" stroke-opacity="0.080"/><path d="M-150,968 C516,838 1116,1030 1750,898" stroke-opacity="0.080"/><path d="M-150,976 C517,846 1117,1037 1750,906" stroke-opacity="0.080"/><path d="M-150,984 C518,854 1118,1045 1750,914" stroke-opacity="0.080"/><path d="M-150,992 C519,862 1119,1052 1750,922" stroke-opacity="0.080"/><path d="M-150,1000 C520,870 1120,1060 1750,930" stroke-opacity="0.080"/></g></svg>